<mxfile host="app.diagrams.net" modified="2023-11-24T06:36:18.954Z" agent="Mozilla/5.0 (Windows NT 10.0; Win64; x64) AppleWebKit/537.36 (KHTML, like Gecko) Chrome/119.0.0.0 Safari/537.36 Edg/119.0.0.0" etag="ggCCq7sQWZ8DrYOAFAVK" version="22.1.3" type="github">
  <diagram id="C5RBs43oDa-KdzZeNtuy" name="Page-1">
    <mxGraphModel dx="786" dy="459" grid="1" gridSize="10" guides="1" tooltips="1" connect="1" arrows="1" fold="1" page="1" pageScale="1" pageWidth="827" pageHeight="1169" math="0" shadow="0">
      <root>
        <mxCell id="WIyWlLk6GJQsqaUBKTNV-0" />
        <mxCell id="WIyWlLk6GJQsqaUBKTNV-1" parent="WIyWlLk6GJQsqaUBKTNV-0" />
        <mxCell id="uf7MD3FrDwz-eXdLhmni-1" value="x1" style="ellipse;whiteSpace=wrap;html=1;aspect=fixed;fillColor=#FFFFFF;" vertex="1" parent="WIyWlLk6GJQsqaUBKTNV-1">
          <mxGeometry x="160" y="180" width="50" height="50" as="geometry" />
        </mxCell>
        <mxCell id="uf7MD3FrDwz-eXdLhmni-2" value="x12" style="ellipse;whiteSpace=wrap;html=1;aspect=fixed;fillColor=#FFFFFF;" vertex="1" parent="WIyWlLk6GJQsqaUBKTNV-1">
          <mxGeometry x="160" y="300" width="50" height="50" as="geometry" />
        </mxCell>
        <mxCell id="uf7MD3FrDwz-eXdLhmni-3" value="1" style="ellipse;whiteSpace=wrap;html=1;aspect=fixed;fillColor=#FFFFFF;" vertex="1" parent="WIyWlLk6GJQsqaUBKTNV-1">
          <mxGeometry x="200" y="480" width="50" height="50" as="geometry" />
        </mxCell>
        <mxCell id="uf7MD3FrDwz-eXdLhmni-4" value="z1" style="ellipse;whiteSpace=wrap;html=1;aspect=fixed;fillColor=#FFFFFF;" vertex="1" parent="WIyWlLk6GJQsqaUBKTNV-1">
          <mxGeometry x="380" y="50" width="50" height="50" as="geometry" />
        </mxCell>
        <mxCell id="uf7MD3FrDwz-eXdLhmni-5" value="z2" style="ellipse;whiteSpace=wrap;html=1;aspect=fixed;fillColor=#FFFFFF;" vertex="1" parent="WIyWlLk6GJQsqaUBKTNV-1">
          <mxGeometry x="380" y="180" width="50" height="50" as="geometry" />
        </mxCell>
        <mxCell id="uf7MD3FrDwz-eXdLhmni-6" value="z3" style="ellipse;whiteSpace=wrap;html=1;aspect=fixed;fillColor=#FFFFFF;" vertex="1" parent="WIyWlLk6GJQsqaUBKTNV-1">
          <mxGeometry x="380" y="300" width="50" height="50" as="geometry" />
        </mxCell>
        <mxCell id="uf7MD3FrDwz-eXdLhmni-7" value="z8" style="ellipse;whiteSpace=wrap;html=1;aspect=fixed;fillColor=#FFFFFF;" vertex="1" parent="WIyWlLk6GJQsqaUBKTNV-1">
          <mxGeometry x="380" y="420" width="50" height="50" as="geometry" />
        </mxCell>
        <mxCell id="uf7MD3FrDwz-eXdLhmni-8" value="y" style="ellipse;whiteSpace=wrap;html=1;aspect=fixed;fillColor=#FFFFFF;" vertex="1" parent="WIyWlLk6GJQsqaUBKTNV-1">
          <mxGeometry x="620" y="240" width="50" height="50" as="geometry" />
        </mxCell>
        <mxCell id="uf7MD3FrDwz-eXdLhmni-9" value="1" style="ellipse;whiteSpace=wrap;html=1;aspect=fixed;fillColor=#FFFFFF;" vertex="1" parent="WIyWlLk6GJQsqaUBKTNV-1">
          <mxGeometry x="510" y="480" width="50" height="50" as="geometry" />
        </mxCell>
        <mxCell id="uf7MD3FrDwz-eXdLhmni-10" value="" style="endArrow=classic;html=1;rounded=0;exitX=1;exitY=0;exitDx=0;exitDy=0;entryX=0;entryY=0;entryDx=0;entryDy=0;strokeColor=#ff0000;" edge="1" parent="WIyWlLk6GJQsqaUBKTNV-1" source="uf7MD3FrDwz-eXdLhmni-1" target="uf7MD3FrDwz-eXdLhmni-4">
          <mxGeometry width="50" height="50" relative="1" as="geometry">
            <mxPoint x="380" y="290" as="sourcePoint" />
            <mxPoint x="430" y="240" as="targetPoint" />
          </mxGeometry>
        </mxCell>
        <mxCell id="uf7MD3FrDwz-eXdLhmni-11" value="" style="endArrow=classic;html=1;rounded=0;exitX=0.973;exitY=0.28;exitDx=0;exitDy=0;entryX=0;entryY=0;entryDx=0;entryDy=0;strokeColor=#ff0000;exitPerimeter=0;" edge="1" parent="WIyWlLk6GJQsqaUBKTNV-1" source="uf7MD3FrDwz-eXdLhmni-1" target="uf7MD3FrDwz-eXdLhmni-5">
          <mxGeometry width="50" height="50" relative="1" as="geometry">
            <mxPoint x="213" y="197" as="sourcePoint" />
            <mxPoint x="390" y="85" as="targetPoint" />
          </mxGeometry>
        </mxCell>
        <mxCell id="uf7MD3FrDwz-eXdLhmni-12" value="" style="endArrow=classic;html=1;rounded=0;exitX=1;exitY=0.5;exitDx=0;exitDy=0;entryX=0;entryY=0;entryDx=0;entryDy=0;strokeColor=#ff0000;" edge="1" parent="WIyWlLk6GJQsqaUBKTNV-1" source="uf7MD3FrDwz-eXdLhmni-1" target="uf7MD3FrDwz-eXdLhmni-6">
          <mxGeometry width="50" height="50" relative="1" as="geometry">
            <mxPoint x="223" y="207" as="sourcePoint" />
            <mxPoint x="400" y="95" as="targetPoint" />
          </mxGeometry>
        </mxCell>
        <mxCell id="uf7MD3FrDwz-eXdLhmni-13" value="" style="endArrow=classic;html=1;rounded=0;exitX=1.013;exitY=0.693;exitDx=0;exitDy=0;entryX=0;entryY=0;entryDx=0;entryDy=0;strokeColor=#ff0000;exitPerimeter=0;" edge="1" parent="WIyWlLk6GJQsqaUBKTNV-1" source="uf7MD3FrDwz-eXdLhmni-1" target="uf7MD3FrDwz-eXdLhmni-7">
          <mxGeometry width="50" height="50" relative="1" as="geometry">
            <mxPoint x="233" y="217" as="sourcePoint" />
            <mxPoint x="410" y="105" as="targetPoint" />
          </mxGeometry>
        </mxCell>
        <mxCell id="uf7MD3FrDwz-eXdLhmni-14" value="" style="endArrow=classic;html=1;rounded=0;exitX=1;exitY=0;exitDx=0;exitDy=0;entryX=0;entryY=0.5;entryDx=0;entryDy=0;strokeColor=#00ff6e;" edge="1" parent="WIyWlLk6GJQsqaUBKTNV-1" source="uf7MD3FrDwz-eXdLhmni-2" target="uf7MD3FrDwz-eXdLhmni-4">
          <mxGeometry width="50" height="50" relative="1" as="geometry">
            <mxPoint x="380" y="290" as="sourcePoint" />
            <mxPoint x="430" y="240" as="targetPoint" />
          </mxGeometry>
        </mxCell>
        <mxCell id="uf7MD3FrDwz-eXdLhmni-15" value="" style="endArrow=classic;html=1;rounded=0;exitX=1;exitY=0.4;exitDx=0;exitDy=0;entryX=0;entryY=0.5;entryDx=0;entryDy=0;strokeColor=#00ff6e;exitPerimeter=0;" edge="1" parent="WIyWlLk6GJQsqaUBKTNV-1" source="uf7MD3FrDwz-eXdLhmni-2" target="uf7MD3FrDwz-eXdLhmni-5">
          <mxGeometry width="50" height="50" relative="1" as="geometry">
            <mxPoint x="213" y="317" as="sourcePoint" />
            <mxPoint x="390" y="85" as="targetPoint" />
          </mxGeometry>
        </mxCell>
        <mxCell id="uf7MD3FrDwz-eXdLhmni-17" value="" style="endArrow=classic;html=1;rounded=0;exitX=1;exitY=0.5;exitDx=0;exitDy=0;entryX=0;entryY=0.5;entryDx=0;entryDy=0;strokeColor=#00ff6e;" edge="1" parent="WIyWlLk6GJQsqaUBKTNV-1" source="uf7MD3FrDwz-eXdLhmni-2" target="uf7MD3FrDwz-eXdLhmni-6">
          <mxGeometry width="50" height="50" relative="1" as="geometry">
            <mxPoint x="220" y="330" as="sourcePoint" />
            <mxPoint x="390" y="215" as="targetPoint" />
          </mxGeometry>
        </mxCell>
        <mxCell id="uf7MD3FrDwz-eXdLhmni-18" value="" style="endArrow=classic;html=1;rounded=0;exitX=1;exitY=0.5;exitDx=0;exitDy=0;entryX=0;entryY=0.347;entryDx=0;entryDy=0;strokeColor=#00ff6e;entryPerimeter=0;" edge="1" parent="WIyWlLk6GJQsqaUBKTNV-1" source="uf7MD3FrDwz-eXdLhmni-2" target="uf7MD3FrDwz-eXdLhmni-7">
          <mxGeometry width="50" height="50" relative="1" as="geometry">
            <mxPoint x="220" y="335" as="sourcePoint" />
            <mxPoint x="390" y="335" as="targetPoint" />
          </mxGeometry>
        </mxCell>
        <mxCell id="uf7MD3FrDwz-eXdLhmni-19" value="" style="endArrow=classic;html=1;rounded=0;exitX=1;exitY=0;exitDx=0;exitDy=0;entryX=0;entryY=1;entryDx=0;entryDy=0;strokeColor=#1100ff;" edge="1" parent="WIyWlLk6GJQsqaUBKTNV-1" source="uf7MD3FrDwz-eXdLhmni-3" target="uf7MD3FrDwz-eXdLhmni-4">
          <mxGeometry width="50" height="50" relative="1" as="geometry">
            <mxPoint x="380" y="290" as="sourcePoint" />
            <mxPoint x="430" y="240" as="targetPoint" />
          </mxGeometry>
        </mxCell>
        <mxCell id="uf7MD3FrDwz-eXdLhmni-20" value="" style="endArrow=classic;html=1;rounded=0;exitX=1;exitY=0.4;exitDx=0;exitDy=0;entryX=0;entryY=1;entryDx=0;entryDy=0;strokeColor=#1100ff;exitPerimeter=0;" edge="1" parent="WIyWlLk6GJQsqaUBKTNV-1" source="uf7MD3FrDwz-eXdLhmni-3" target="uf7MD3FrDwz-eXdLhmni-5">
          <mxGeometry width="50" height="50" relative="1" as="geometry">
            <mxPoint x="253" y="497" as="sourcePoint" />
            <mxPoint x="397" y="103" as="targetPoint" />
          </mxGeometry>
        </mxCell>
        <mxCell id="uf7MD3FrDwz-eXdLhmni-21" value="" style="endArrow=classic;html=1;rounded=0;exitX=1;exitY=0.5;exitDx=0;exitDy=0;entryX=0;entryY=1;entryDx=0;entryDy=0;strokeColor=#1100ff;" edge="1" parent="WIyWlLk6GJQsqaUBKTNV-1" source="uf7MD3FrDwz-eXdLhmni-3" target="uf7MD3FrDwz-eXdLhmni-6">
          <mxGeometry width="50" height="50" relative="1" as="geometry">
            <mxPoint x="260" y="500" as="sourcePoint" />
            <mxPoint x="397" y="233" as="targetPoint" />
          </mxGeometry>
        </mxCell>
        <mxCell id="uf7MD3FrDwz-eXdLhmni-22" value="" style="endArrow=classic;html=1;rounded=0;exitX=1;exitY=0.5;exitDx=0;exitDy=0;entryX=0;entryY=0.5;entryDx=0;entryDy=0;strokeColor=#1100ff;" edge="1" parent="WIyWlLk6GJQsqaUBKTNV-1" source="uf7MD3FrDwz-eXdLhmni-3" target="uf7MD3FrDwz-eXdLhmni-7">
          <mxGeometry width="50" height="50" relative="1" as="geometry">
            <mxPoint x="260" y="515" as="sourcePoint" />
            <mxPoint x="397" y="353" as="targetPoint" />
          </mxGeometry>
        </mxCell>
        <mxCell id="uf7MD3FrDwz-eXdLhmni-23" value="" style="endArrow=classic;html=1;rounded=0;exitX=1;exitY=0.5;exitDx=0;exitDy=0;entryX=0;entryY=0.5;entryDx=0;entryDy=0;strokeColor=#ffd500;" edge="1" parent="WIyWlLk6GJQsqaUBKTNV-1" source="uf7MD3FrDwz-eXdLhmni-5" target="uf7MD3FrDwz-eXdLhmni-8">
          <mxGeometry width="50" height="50" relative="1" as="geometry">
            <mxPoint x="380" y="360" as="sourcePoint" />
            <mxPoint x="430" y="310" as="targetPoint" />
          </mxGeometry>
        </mxCell>
        <mxCell id="uf7MD3FrDwz-eXdLhmni-24" value="" style="endArrow=classic;html=1;rounded=0;exitX=1;exitY=0.5;exitDx=0;exitDy=0;strokeColor=#ffd500;entryX=0;entryY=0;entryDx=0;entryDy=0;" edge="1" parent="WIyWlLk6GJQsqaUBKTNV-1" source="uf7MD3FrDwz-eXdLhmni-4" target="uf7MD3FrDwz-eXdLhmni-8">
          <mxGeometry width="50" height="50" relative="1" as="geometry">
            <mxPoint x="440" y="85" as="sourcePoint" />
            <mxPoint x="620" y="240" as="targetPoint" />
          </mxGeometry>
        </mxCell>
        <mxCell id="uf7MD3FrDwz-eXdLhmni-26" value="" style="endArrow=classic;html=1;rounded=0;exitX=1;exitY=0.5;exitDx=0;exitDy=0;strokeColor=#ffd500;" edge="1" parent="WIyWlLk6GJQsqaUBKTNV-1" source="uf7MD3FrDwz-eXdLhmni-6" target="uf7MD3FrDwz-eXdLhmni-8">
          <mxGeometry width="50" height="50" relative="1" as="geometry">
            <mxPoint x="440" y="215" as="sourcePoint" />
            <mxPoint x="630" y="275" as="targetPoint" />
          </mxGeometry>
        </mxCell>
        <mxCell id="uf7MD3FrDwz-eXdLhmni-27" value="" style="endArrow=classic;html=1;rounded=0;exitX=0.973;exitY=0.32;exitDx=0;exitDy=0;strokeColor=#ffd500;exitPerimeter=0;entryX=0;entryY=1;entryDx=0;entryDy=0;" edge="1" parent="WIyWlLk6GJQsqaUBKTNV-1" source="uf7MD3FrDwz-eXdLhmni-7" target="uf7MD3FrDwz-eXdLhmni-8">
          <mxGeometry width="50" height="50" relative="1" as="geometry">
            <mxPoint x="440" y="335" as="sourcePoint" />
            <mxPoint x="631" y="282" as="targetPoint" />
          </mxGeometry>
        </mxCell>
        <mxCell id="uf7MD3FrDwz-eXdLhmni-28" value="" style="endArrow=classic;html=1;rounded=0;exitX=0.5;exitY=0;exitDx=0;exitDy=0;entryX=0.5;entryY=1;entryDx=0;entryDy=0;strokeColor=#1100ff;" edge="1" parent="WIyWlLk6GJQsqaUBKTNV-1" source="uf7MD3FrDwz-eXdLhmni-9" target="uf7MD3FrDwz-eXdLhmni-8">
          <mxGeometry width="50" height="50" relative="1" as="geometry">
            <mxPoint x="260" y="515" as="sourcePoint" />
            <mxPoint x="390" y="455" as="targetPoint" />
          </mxGeometry>
        </mxCell>
      </root>
    </mxGraphModel>
  </diagram>
</mxfile>
